<svg xmlns="http://www.w3.org/2000/svg" viewBox="0 0 271.46 67.49"><defs><linearGradient id="a" x1="561.5" y1="-54.72" x2="561.5" y2="19.97" gradientTransform="translate(-425.77 52.31)" gradientUnits="userSpaceOnUse"><stop offset="0" stop-color="#9ff"/><stop offset="1" stop-color="#3ff"/></linearGradient></defs><g data-name="Layer 2"><path d="M22.2 63.49a23.68 23.68 0 0 1-9.72 0l3.59 3.6a24.32 24.32 0 0 0 9.55-.1 42 42 0 0 0 10.93-3.82l-3.41-3.48a42 42 0 0 1-10.94 3.8zm36.35-32.35l-4.93.93A38.21 38.21 0 0 0 56 26.72a28.69 28.69 0 0 0 1.32-5.15l5-.95c1.42-7.08 0-12.83-3.53-16.46L54.5 9.41a11.74 11.74 0 0 0-6.93-3.6L52 .47a23.9 23.9 0 0 0-9.7.05 41.64 41.64 0 0 0-10.89 3.79l1 4.35a49 49 0 0 0-10.62 6.91l-1-4.35A63.19 63.19 0 0 0 4.09 31.6l5.34-1a38.49 38.49 0 0 0-2.37 5.35 28.79 28.79 0 0 0-1.32 5.15l-5.28 1c-1.3 7 .18 12.71 3.86 16.25l4.2-5.1a11.74 11.74 0 0 0 6.93 3.6l-4.12 5a24.28 24.28 0 0 0 9.27-.13 41.68 41.68 0 0 0 10.9-3.82l-.86-3.9a49.07 49.07 0 0 0 10.62-6.91l.9 3.89a63.43 63.43 0 0 0 16.39-19.84zm-35 23c-12.14 2.29-18.39-6-14-18.62s17.83-24.62 30-26.9 18.4 6 14 18.62S35.67 51.81 23.53 54.1zm110.04-25.26a6.39 6.39 0 0 1 1.1 2.63 22.43 22.43 0 0 1 .31 3.05q.08 1.87.23 3.85t.4 3.79a7.47 7.47 0 0 0 .87 2.8l4.24-.06v-.34a2.29 2.29 0 0 1-.68-.82 5.81 5.81 0 0 1-.48-1.5 23.32 23.32 0 0 1-.34-2.49Q139.1 38.3 139 36q-.06-1.58-.2-3.28a13.8 13.8 0 0 0-.65-3.23 8 8 0 0 0-1.53-2.72 6.33 6.33 0 0 0-2.83-1.81 11.85 11.85 0 0 0 5.06-3.85 10.63 10.63 0 0 0 1.61-6.11q0-5.66-3.56-8.17T126.61 4.3h-15.94V45l3.84.06V26.53h12.09a21.72 21.72 0 0 1 2.74.17 7.93 7.93 0 0 1 2.4.68 5 5 0 0 1 1.85 1.5zm-7.09-5.63h-12V7.58h12.21a19.76 19.76 0 0 1 3.7.34 9.33 9.33 0 0 1 3.16 1.19 6.22 6.22 0 0 1 2.2 2.32 7.62 7.62 0 0 1 .82 3.73 7.91 7.91 0 0 1-.79 3.68 7.13 7.13 0 0 1-2.15 2.52 9 9 0 0 1-3.19 1.44 16.61 16.61 0 0 1-3.96.45zM94.13 44.83a21 21 0 0 0 3.81-.74 15.93 15.93 0 0 0 3.5-1.5 12.5 12.5 0 0 0 3.08-2.55 14.79 14.79 0 0 0 2.35-3.37 21.14 21.14 0 0 0 1.5-3.85 27.27 27.27 0 0 0 .82-4.1 34.17 34.17 0 0 0 .25-4.13 35 35 0 0 0-.31-4.44 26.29 26.29 0 0 0-1.07-4.75 20.92 20.92 0 0 0-2.06-4.46 12.38 12.38 0 0 0-3.33-3.59 14.55 14.55 0 0 0-2.91-1.64 16.24 16.24 0 0 0-3.08-.93 23 23 0 0 0-3.22-.4q-1.64-.09-3.33-.08H76.22V45h13.9q2.04 0 4.01-.17zm-14.07-3.08V7.58h9.21a44.63 44.63 0 0 1 5 .28 12 12 0 0 1 4.33 1.25 10.76 10.76 0 0 1 3.5 2.89 14.52 14.52 0 0 1 2.15 3.79 18.48 18.48 0 0 1 1.07 4.36 36.77 36.77 0 0 1 .28 4.5 32.12 32.12 0 0 1-.31 4.36 20.51 20.51 0 0 1-1.07 4.33 15.26 15.26 0 0 1-2.06 3.82 9.21 9.21 0 0 1-3.33 2.77 14.12 14.12 0 0 1-4.66 1.56 36.2 36.2 0 0 1-4.89.31zM33.54 25q-1.4 1.66-.63 3l4-4.75A4 4 0 0 0 33.54 25zM61.06 5.61c3.25 3.51 4.58 9.1 3.26 16.07l3.42 3.43c1.3-7-.12-12.65-3.68-16.22zm24.41 58a3.92 3.92 0 0 1-2.76.95 4.13 4.13 0 0 1-2.05-.47 4 4 0 0 1-1.38-1.27A5.5 5.5 0 0 1 78.5 61a8.67 8.67 0 0 1-.25-2 8.27 8.27 0 0 1 .26-2 5.8 5.8 0 0 1 .8-1.82 4.09 4.09 0 0 1 1.38-1.3 4 4 0 0 1 2-.49 3.83 3.83 0 0 1 2.54.83 4.49 4.49 0 0 1 1.41 2.32h1.56a5.13 5.13 0 0 0-1.78-3.44 5.92 5.92 0 0 0-3.7-1.1 5.75 5.75 0 0 0-2.63.58 5.65 5.65 0 0 0-1.91 1.55 7 7 0 0 0-1.18 2.2 8.83 8.83 0 0 0-.4 2.66 10.17 10.17 0 0 0 .4 2.74A6.21 6.21 0 0 0 78.07 64 5.17 5.17 0 0 0 80 65.43a7.18 7.18 0 0 0 5 .18 5 5 0 0 0 1.68-1 5.33 5.33 0 0 0 1.1-1.61 7.79 7.79 0 0 0 .65-2h-1.64a4.42 4.42 0 0 1-1.32 2.63zM26.05 39.09a3.43 3.43 0 0 0 2.08-.39 5.66 5.66 0 0 0 1.67-1.35 4.2 4.2 0 0 0 1.07-1.94 2.25 2.25 0 0 0-.38-1.58zM38 12.85c-9.89 1.87-20.82 11.68-24.42 21.92s1.5 17 11.39 15.17S45.77 38.27 49.37 28 47.87 11 38 12.85zm5.74 13.6a11.93 11.93 0 0 1-1.39 2l-.35.42-4.15-1.52a8 8 0 0 0 1.26-2 1.15 1.15 0 0 0-.26-1.35l-4.75 5.57 1.57 1.82a7 7 0 0 1 .87 1.33 3 3 0 0 1 .29 1.45 4.59 4.59 0 0 1-.49 1.75 10.73 10.73 0 0 1-1.51 2.2 12.25 12.25 0 0 1-5.46 4.06 10.23 10.23 0 0 1-5.9 0l-2.18 2.58-1.93-.76 2.18-2.58a7.16 7.16 0 0 1-2.48-1.75 2.78 2.78 0 0 1-.68-2 4.85 4.85 0 0 1 .71-2.17 16.11 16.11 0 0 1 1.63-2.28l.53-.62 4.15 1.52q-.53.62-1 1.22a5.27 5.27 0 0 0-.67 1.14 2 2 0 0 0-.16 1 1.26 1.26 0 0 0 .53.84l5.07-6-1.05-1.09a3.9 3.9 0 0 1-1.29-3.37 7.88 7.88 0 0 1 2-3.84 11.91 11.91 0 0 1 5.06-3.72 9.91 9.91 0 0 1 5.68-.27l1.73-2 1.92.71-1.73 2a5.6 5.6 0 0 1 2.19 1.68 3.2 3.2 0 0 1 .61 1.91 4.47 4.47 0 0 1-.58 2.12zm.06 26.31l3.41 3.48a63.72 63.72 0 0 0 16.9-20.6l-3.46-3.44a63.74 63.74 0 0 1-16.88 20.56zM114 65.61h1.54v-13.3H114zm13.64-11.76a3.89 3.89 0 0 0-1.77-1.48 6.05 6.05 0 0 0-2.27-.37 4.4 4.4 0 0 0-2.37.61 9.83 9.83 0 0 0-1.91 1.59v-1.89h-1.54v13.3h1.54v-7.16c0-.46 0-.89.05-1.28a4.89 4.89 0 0 1 .28-1.23 3.8 3.8 0 0 1 .51-1 3.9 3.9 0 0 1 .81-.82 4.05 4.05 0 0 1 1.06-.58 3.73 3.73 0 0 1 1.31-.22 3.38 3.38 0 0 1 2.64.9 4 4 0 0 1 .8 2.7v8.68h1.54v-8.7a13.52 13.52 0 0 0-.09-1.58 3.31 3.31 0 0 0-.58-1.47zm94.53-13.63h-.11L208.74 4.3h-5.88v38.2L188.23 4.3h-4.35l-14.71 37.45H146V25.57h21v-3.28h-21V7.58h23.23V4.3h-27.06V45h29.67l4.8-12.79h18.54L199.87 45h6.83V8.71h.11L220.21 45h3.62l13.33-36.29h.11V45h3.84V4.3h-5.81zM177.95 29l8-21.39 8 21.39zm-37.48 25a5.53 5.53 0 0 0-1.92-1.49 6.24 6.24 0 0 0-2.72-.55 6.18 6.18 0 0 0-2.69.55 5.48 5.48 0 0 0-1.92 1.5 6.45 6.45 0 0 0-1.15 2.22 9.39 9.39 0 0 0-.38 2.73 8.72 8.72 0 0 0 .49 3.05 6.28 6.28 0 0 0 1.32 2.18 5.39 5.39 0 0 0 1.95 1.31 6.91 6.91 0 0 0 2.4.46 6.21 6.21 0 0 0 2.53-.5A5.48 5.48 0 0 0 140.3 64a6.48 6.48 0 0 0 1.24-2.21A8.92 8.92 0 0 0 142 59a9.85 9.85 0 0 0-.37-2.75 6.17 6.17 0 0 0-1.16-2.25zm-.38 7a5.7 5.7 0 0 1-.8 1.8 4 4 0 0 1-1.4 1.27 4.2 4.2 0 0 1-2.06.47 4.41 4.41 0 0 1-1.95-.41 3.87 3.87 0 0 1-1.41-1.13 5.35 5.35 0 0 1-.86-1.78 8.33 8.33 0 0 1-.29-2.27 8.48 8.48 0 0 1 .26-2.09 5.5 5.5 0 0 1 .79-1.8 4.05 4.05 0 0 1 1.4-1.26 4.22 4.22 0 0 1 2.06-.47 4.5 4.5 0 0 1 2.08.44 3.83 3.83 0 0 1 1.38 1.23 5.25 5.25 0 0 1 .8 1.78 9.14 9.14 0 0 1 .26 2.21 8.37 8.37 0 0 1-.26 2.01zm130.38-31.67a9.12 9.12 0 0 0-2.63-3.2 13.46 13.46 0 0 0-3.76-2q-2.12-.73-4.38-1.27t-4.44-1a22.84 22.84 0 0 1-4-1.24 10 10 0 0 1-3.05-2 5.53 5.53 0 0 1-1.58-3.17 7 7 0 0 1 .17-3.17 7.16 7.16 0 0 1 1.64-2.88 8.68 8.68 0 0 1 3.19-2.12 13.1 13.1 0 0 1 4.94-.82 13.7 13.7 0 0 1 3.73.51 9.53 9.53 0 0 1 3.22 1.58 7.54 7.54 0 0 1 2.23 2.77 9.15 9.15 0 0 1 .82 4h3.67a13 13 0 0 0-.85-4.7 10.83 10.83 0 0 0-2.54-3.88 12 12 0 0 0-4.27-2.63 17.18 17.18 0 0 0-6-1 18.21 18.21 0 0 0-6 .9 12.76 12.76 0 0 0-4.32 2.43 10.14 10.14 0 0 0-2.6 3.51 10 10 0 0 0-.88 4.07 10.18 10.18 0 0 0 1.07 4.95 9.53 9.53 0 0 0 2.8 3.2 14.34 14.34 0 0 0 4 2q2.23.74 4.58 1.27t4.58 1.1a17.08 17.08 0 0 1 4 1.5 8.29 8.29 0 0 1 2.8 2.4 6.38 6.38 0 0 1 1.07 3.85 8.83 8.83 0 0 1-.59 3.23 7.22 7.22 0 0 1-1.84 2.69 8.87 8.87 0 0 1-3.25 1.93 14.49 14.49 0 0 1-4.69.68 17 17 0 0 1-4.35-.54 10.06 10.06 0 0 1-3.59-1.73 9.1 9.1 0 0 1-2.54-3.08 12.07 12.07 0 0 1-1.22-4.61h-3.73a14.09 14.09 0 0 0 1.1 5.8A11.43 11.43 0 0 0 246 42.8a13 13 0 0 0 4.69 2.49 20.22 20.22 0 0 0 5.88.82q7.06 0 11-3.11a10.58 10.58 0 0 0 3.9-8.77 10.78 10.78 0 0 0-1-4.9zM100.55 64.47q-.32-.24-.32-1.14v-7.24a4.6 4.6 0 0 0-.37-2 3.21 3.21 0 0 0-1-1.27 4.36 4.36 0 0 0-1.54-.69 7.82 7.82 0 0 0-1.91-.13 8.35 8.35 0 0 0-2 .24 5 5 0 0 0-1.69.77 4.09 4.09 0 0 0-1.19 1.36 4.78 4.78 0 0 0-.54 2h1.56a3.92 3.92 0 0 1 .42-1.45 2.69 2.69 0 0 1 .82-.93 3.2 3.2 0 0 1 1.17-.49 7.06 7.06 0 0 1 1.46-.14 3.53 3.53 0 0 1 2.55.76 2.62 2.62 0 0 1 .72 1.88 3.83 3.83 0 0 1-.09.78.82.82 0 0 1-.47.6 4 4 0 0 1-1 .28l-1 .15-2.13.33q-4.64.62-4.64 4a3.66 3.66 0 0 0 .36 1.68 3.55 3.55 0 0 0 1 1.19 4.06 4.06 0 0 0 1.42.72 6.07 6.07 0 0 0 1.68.23 6.53 6.53 0 0 0 2.72-.57 6.67 6.67 0 0 0 2.23-1.64 4.31 4.31 0 0 0 .05.68A1.93 1.93 0 0 0 99 65a1.5 1.5 0 0 0 .37.46 1.17 1.17 0 0 0 .62.24 3 3 0 0 0 .69.08 2.37 2.37 0 0 0 .68-.1l.53-.15v-1.18c-.7.24-1.13.28-1.34.12zm-1.86-3.76a3.5 3.5 0 0 1-.41 1.73 3.61 3.61 0 0 1-1.09 1.21 4.88 4.88 0 0 1-1.55.71 7 7 0 0 1-1.79.23 4.09 4.09 0 0 1-1.06-.14 2.72 2.72 0 0 1-.92-.44 2.23 2.23 0 0 1-.64-.75A2.2 2.2 0 0 1 91 62.2a2.28 2.28 0 0 1 1-2 5.63 5.63 0 0 1 2.76-.8c.67-.05 1.33-.12 2-.21a7.39 7.39 0 0 0 2-.54zm11.55-1.76a10 10 0 0 0-2.05-.65q-1.1-.23-2.05-.53a5.09 5.09 0 0 1-1.58-.77 1.61 1.61 0 0 1-.63-1.37 2 2 0 0 1 .77-1.63 3.46 3.46 0 0 1 2.23-.63 4.35 4.35 0 0 1 2.42.63 2.88 2.88 0 0 1 1.17 2.17h1.56a4.41 4.41 0 0 0-1.63-3.22 5.89 5.89 0 0 0-3.5-1 5.08 5.08 0 0 0-3.44 1.05 3.47 3.47 0 0 0-1.22 2.73 3 3 0 0 0 .63 2 4.11 4.11 0 0 0 1.58 1.1 10.08 10.08 0 0 0 2.05.58 20 20 0 0 1 2.05.46 4.77 4.77 0 0 1 1.58.74 1.71 1.71 0 0 1 .63 1.45 2.15 2.15 0 0 1-.21.92 2.4 2.4 0 0 1-.6.78 3 3 0 0 1-1 .55 4.6 4.6 0 0 1-1.46.2 4.37 4.37 0 0 1-2.68-.71 3.9 3.9 0 0 1-1.29-2.43H102a5.06 5.06 0 0 0 .41 1.77 4.44 4.44 0 0 0 1 1.44 4.54 4.54 0 0 0 1.55 1A5.87 5.87 0 0 0 107 66a9 9 0 0 0 2.17-.24 5.24 5.24 0 0 0 1.7-.73 3.57 3.57 0 0 0 1.13-1.26 3.38 3.38 0 0 0 .41-1.68 2.94 2.94 0 0 0-.63-2 4.49 4.49 0 0 0-1.54-1.14z" fill="url(#a)" data-name="Layer 1"/></g></svg>